<?xml version="1.0" encoding="UTF-8"?>
<svg width="120px" height="36px" viewBox="0 0 120 36" version="1.1" xmlns="http://www.w3.org/2000/svg" xmlns:xlink="http://www.w3.org/1999/xlink">
    <!-- Generator: Sketch 55.2 (78181) - https://sketchapp.com -->
    <title>btn-google_play</title>
    <desc>Created with Sketch.</desc>
    <defs>
        <linearGradient x1="61.13659%" y1="4.6768%" x2="26.3783174%" y2="71.8064%" id="linearGradient-1">
            <stop stop-color="#00A1FF" offset="0%"></stop>
            <stop stop-color="#00BEFF" offset="26.01%"></stop>
            <stop stop-color="#00D2FF" offset="51.22%"></stop>
            <stop stop-color="#00DFFF" offset="76.04%"></stop>
            <stop stop-color="#00E3FF" offset="100%"></stop>
        </linearGradient>
        <linearGradient x1="107.99803%" y1="49.5345238%" x2="-130.395074%" y2="49.5345238%" id="linearGradient-2">
            <stop stop-color="#FFE000" offset="0%"></stop>
            <stop stop-color="#FFBD00" offset="40.87%"></stop>
            <stop stop-color="#FFA500" offset="77.54%"></stop>
            <stop stop-color="#FF9C00" offset="100%"></stop>
        </linearGradient>
        <linearGradient x1="86.4722892%" y1="30.8764094%" x2="-50.6259036%" y2="136.035847%" id="linearGradient-3">
            <stop stop-color="#FF3A44" offset="0%"></stop>
            <stop stop-color="#C31162" offset="100%"></stop>
        </linearGradient>
        <linearGradient x1="-19.1283133%" y1="-11.2584226%" x2="42.0921687%" y2="35.1999081%" id="linearGradient-4">
            <stop stop-color="#32A071" offset="0%"></stop>
            <stop stop-color="#2DA771" offset="6.85%"></stop>
            <stop stop-color="#15CF74" offset="47.62%"></stop>
            <stop stop-color="#06E775" offset="80.09%"></stop>
            <stop stop-color="#00F076" offset="100%"></stop>
        </linearGradient>
    </defs>
    <g id="btn-google_play" stroke="none" stroke-width="1" fill="none" fill-rule="evenodd">
        <g id="get-it-on-google-play">
            <g id="google-play" transform="translate(36.090226, 15.600000)" fill="#FFFFFF">
                <path d="M59.9702256,12.15 L61.6538346,12.15 L61.6538346,0.8991 L59.9702256,0.8991 L59.9702256,12.15 Z M75.1344361,4.9518 L73.203609,9.8298 L73.1458647,9.8298 L71.1437594,4.9518 L69.3293233,4.9518 L72.3329323,11.7693 L70.6213534,15.5619 L72.3771429,15.5619 L77.0057143,4.9518 L75.1344361,4.9518 Z M65.5858647,10.872 C65.0345865,10.872 64.2649624,10.5975 64.2649624,9.9162 C64.2649624,9.0486 65.2231579,8.7156 66.0505263,8.7156 C66.7903759,8.7156 67.1386466,8.8749 67.5879699,9.0918 C67.4580451,10.134 66.557594,10.872 65.5858647,10.872 L65.5858647,10.872 Z M65.7888722,4.7061 C64.5699248,4.7061 63.3076692,5.2416 62.7852632,6.4287 L64.2793985,7.0506 C64.598797,6.4287 65.1942857,6.2253 65.8177444,6.2253 C66.6884211,6.2253 67.5735338,6.7464 67.5879699,7.6734 L67.5879699,7.7886 C67.2830075,7.6149 66.6306767,7.3548 65.8321805,7.3548 C64.2216541,7.3548 62.5822556,8.2377 62.5822556,9.8874 C62.5822556,11.3931 63.9022556,12.3633 65.3828571,12.3633 C66.5142857,12.3633 67.1386466,11.8566 67.5302256,11.2626 L67.5879699,11.2626 L67.5879699,12.1311 L69.2138346,12.1311 L69.2138346,7.8174 C69.2138346,5.8203 67.718797,4.7061 65.7888722,4.7061 L65.7888722,4.7061 Z M55.3840602,6.3216 L52.9903759,6.3216 L52.9903759,2.4651 L55.3840602,2.4651 C56.6427068,2.4651 57.3581955,3.5046 57.3581955,4.3929 C57.3581955,5.265 56.6427068,6.3216 55.3840602,6.3216 L55.3840602,6.3216 Z M55.3407519,0.8991 L51.3067669,0.8991 L51.3067669,12.15 L52.9903759,12.15 L52.9903759,7.8876 L55.3407519,7.8876 C57.2066165,7.8876 59.0409023,6.5394 59.0409023,4.3929 C59.0409023,2.2464 57.2066165,0.8991 55.3407519,0.8991 L55.3407519,0.8991 Z M33.3428571,10.8738 C32.1798496,10.8738 31.2063158,9.9027 31.2063158,8.5689 C31.2063158,7.2207 32.1798496,6.2343 33.3428571,6.2343 C34.4914286,6.2343 35.392782,7.2207 35.392782,8.5689 C35.392782,9.9027 34.4914286,10.8738 33.3428571,10.8738 L33.3428571,10.8738 Z M35.276391,5.5818 L35.2177444,5.5818 C34.8396992,5.1327 34.1133835,4.7268 33.197594,4.7268 C31.2784962,4.7268 29.52,6.408 29.52,8.5689 C29.52,10.7145 31.2784962,12.3822 33.197594,12.3822 C34.1133835,12.3822 34.8396992,11.9763 35.2177444,11.5119 L35.276391,11.5119 L35.276391,12.0636 C35.276391,13.5279 34.4914286,14.3109 33.2264662,14.3109 C32.1942857,14.3109 31.5545865,13.5711 31.2938346,12.9474 L29.8249624,13.5567 C30.2463158,14.5719 31.366015,15.8184 33.2264662,15.8184 C35.2033083,15.8184 36.875188,14.6583 36.875188,11.8314 L36.875188,4.9581 L35.276391,4.9581 L35.276391,5.5818 Z M38.0381955,12.15 L39.7245113,12.15 L39.7245113,0.8982 L38.0381955,0.8982 L38.0381955,12.15 Z M42.2102256,8.4384 C42.166015,6.9597 43.3578947,6.2055 44.2159398,6.2055 C44.8845113,6.2055 45.4511278,6.5385 45.6406015,7.0173 L42.2102256,8.4384 Z M47.442406,7.1622 C47.1230075,6.3072 46.1485714,4.7268 44.1572932,4.7268 C42.1804511,4.7268 40.5383459,6.2775 40.5383459,8.5545 C40.5383459,10.7001 42.166015,12.3822 44.3467669,12.3822 C46.1052632,12.3822 47.1230075,11.3094 47.5443609,10.6857 L46.2360902,9.8154 C45.8003008,10.4535 45.2039098,10.8738 44.3467669,10.8738 C43.4887218,10.8738 42.8778947,10.4823 42.4863158,9.7146 L47.6174436,7.5969 L47.442406,7.1622 Z M6.56300752,5.9013 L6.56300752,7.5249 L10.4589474,7.5249 C10.3425564,8.4384 10.0366917,9.1053 9.57203008,9.5688 C9.00451128,10.1349 8.11849624,10.7586 6.56300752,10.7586 C4.16481203,10.7586 2.28992481,8.8299 2.28992481,6.4377 C2.28992481,4.0446 4.16481203,2.1168 6.56300752,2.1168 C7.85684211,2.1168 8.80150376,2.6244 9.49894737,3.2769 L10.6475188,2.1312 C9.67398496,1.2033 8.38015038,0.4923 6.56300752,0.4923 C3.27789474,0.4923 0.516090226,3.1608 0.516090226,6.4377 C0.516090226,9.7146 3.27789474,12.3822 6.56300752,12.3822 C8.33593985,12.3822 9.67398496,11.8017 10.7206015,10.7145 C11.7960902,9.6417 12.1299248,8.1342 12.1299248,6.9156 C12.1299248,6.5385 12.1010526,6.1911 12.0433083,5.9013 L6.56300752,5.9013 Z M16.5590977,10.8738 C15.3960902,10.8738 14.392782,9.9171 14.392782,8.5545 C14.392782,7.1766 15.3960902,6.2343 16.5590977,6.2343 C17.7221053,6.2343 18.7245113,7.1766 18.7245113,8.5545 C18.7245113,9.9171 17.7221053,10.8738 16.5590977,10.8738 L16.5590977,10.8738 Z M16.5590977,4.7268 C14.4369925,4.7268 12.7064662,6.336 12.7064662,8.5545 C12.7064662,10.7586 14.4369925,12.3822 16.5590977,12.3822 C18.681203,12.3822 20.4108271,10.7586 20.4108271,8.5545 C20.4108271,6.336 18.681203,4.7268 16.5590977,4.7268 L16.5590977,4.7268 Z M24.9618045,10.8738 C23.798797,10.8738 22.796391,9.9171 22.796391,8.5545 C22.796391,7.1766 23.798797,6.2343 24.9618045,6.2343 C26.124812,6.2343 27.127218,7.1766 27.127218,8.5545 C27.127218,9.9171 26.124812,10.8738 24.9618045,10.8738 L24.9618045,10.8738 Z M24.9618045,4.7268 C22.8396992,4.7268 21.1100752,6.336 21.1100752,8.5545 C21.1100752,10.7586 22.8396992,12.3822 24.9618045,12.3822 C27.0839098,12.3822 28.8135338,10.7586 28.8135338,8.5545 C28.8135338,6.336 27.0839098,4.7268 24.9618045,4.7268 L24.9618045,4.7268 Z" id="Shape"></path>
            </g>
            <path d="M37.7426758,12 L37.7426758,5.6015625 L39.5488281,5.6015625 C40.1054715,5.6015625 40.5976541,5.72460814 41.0253906,5.97070312 C41.4531271,6.21679811 41.7834461,6.56689226 42.0163574,7.02099609 C42.2492687,7.47509993 42.3671875,7.99657909 42.3701172,8.58544922 L42.3701172,8.99414062 C42.3701172,9.59765927 42.2536633,10.1264626 42.020752,10.5805664 C41.7878406,11.0346702 41.4553244,11.3832996 41.0231934,11.6264648 C40.5910623,11.8696301 40.0878935,11.9941406 39.5136719,12 L37.7426758,12 Z M38.5864258,6.29589844 L38.5864258,11.3100586 L39.4741211,11.3100586 C40.124515,11.3100586 40.6306134,11.1079122 40.9924316,10.7036133 C41.3542499,10.2993144 41.5351562,9.72363655 41.5351562,8.9765625 L41.5351562,8.60302734 C41.5351562,7.87646121 41.3645037,7.31176959 41.0231934,6.90893555 C40.6818831,6.5061015 40.197757,6.30175784 39.5708008,6.29589844 L38.5864258,6.29589844 Z M44.4003906,12 L43.5874023,12 L43.5874023,7.24511719 L44.4003906,7.24511719 L44.4003906,12 Z M43.5214844,5.98388672 C43.5214844,5.85205012 43.5617672,5.74072311 43.642334,5.64990234 C43.7229008,5.55908158 43.8422844,5.51367188 44.0004883,5.51367188 C44.1586922,5.51367188 44.2788082,5.55908158 44.3608398,5.64990234 C44.4428715,5.74072311 44.4838867,5.85205012 44.4838867,5.98388672 C44.4838867,6.11572332 44.4428715,6.2255855 44.3608398,6.31347656 C44.2788082,6.40136763 44.1586922,6.4453125 44.0004883,6.4453125 C43.8422844,6.4453125 43.7229008,6.40136763 43.642334,6.31347656 C43.5617672,6.2255855 43.5214844,6.11572332 43.5214844,5.98388672 Z M48.4697266,10.7387695 C48.4697266,10.5190419 48.3869637,10.3483893 48.2214355,10.2268066 C48.0559074,10.105224 47.767336,10.0004887 47.3557129,9.91259766 C46.9440897,9.82470659 46.6174328,9.7192389 46.3757324,9.59619141 C46.134032,9.47314392 45.9553228,9.32666101 45.8395996,9.15673828 C45.7238764,8.98681556 45.6660156,8.78466914 45.6660156,8.55029297 C45.6660156,8.16064258 45.8308089,7.83105604 46.1604004,7.56152344 C46.4899919,7.29199084 46.9111302,7.15722656 47.4238281,7.15722656 C47.9628933,7.15722656 48.4001448,7.29638533 48.7355957,7.57470703 C49.0710466,7.85302874 49.2387695,8.20898221 49.2387695,8.64257812 L48.4213867,8.64257812 C48.4213867,8.41992076 48.3269052,8.22802815 48.1379395,8.06689453 C47.9489737,7.90576091 47.7109389,7.82519531 47.4238281,7.82519531 C47.1279282,7.82519531 46.8964852,7.88964779 46.7294922,8.01855469 C46.5624992,8.14746158 46.4790039,8.31591693 46.4790039,8.52392578 C46.4790039,8.72021583 46.5566398,8.86816356 46.7119141,8.96777344 C46.8671883,9.06738331 47.147703,9.1625972 47.5534668,9.25341797 C47.9592305,9.34423874 48.2880847,9.45263609 48.5400391,9.57861328 C48.7919934,9.70459047 48.9787592,9.85620029 49.1003418,10.0334473 C49.2219244,10.2106942 49.2827148,10.4267565 49.2827148,10.6816406 C49.2827148,11.1064474 49.1127947,11.4470202 48.7729492,11.7033691 C48.4331038,11.9597181 47.9921902,12.0878906 47.4501953,12.0878906 C47.069334,12.0878906 46.7324233,12.0205085 46.4394531,11.8857422 C46.1464829,11.7509759 45.9172372,11.5627453 45.751709,11.3210449 C45.5861808,11.0793445 45.503418,10.8178725 45.503418,10.5366211 L46.3164062,10.5366211 C46.3310548,10.8090834 46.4401845,11.0251457 46.6437988,11.1848145 C46.8474131,11.3444832 47.1162093,11.4243164 47.4501953,11.4243164 C47.757814,11.4243164 48.0046377,11.3620612 48.1906738,11.2375488 C48.3767099,11.1130365 48.4697266,10.9467784 48.4697266,10.7387695 Z M54.3583984,9.67529297 C54.3583984,10.3989294 54.1928727,10.9819314 53.8618164,11.4243164 C53.5307601,11.8667014 53.0825224,12.0878906 52.5170898,12.0878906 C51.9399385,12.0878906 51.4858415,11.904787 51.1547852,11.5385742 L51.1547852,13.828125 L50.3417969,13.828125 L50.3417969,7.24511719 L51.0844727,7.24511719 L51.1240234,7.77246094 C51.4550798,7.36230264 51.9150361,7.15722656 52.5039062,7.15722656 C53.0751982,7.15722656 53.5270979,7.37255644 53.8596191,7.80322266 C54.1921403,8.23388887 54.3583984,8.83300397 54.3583984,9.60058594 L54.3583984,9.67529297 Z M53.5454102,9.58300781 C53.5454102,9.04687232 53.4311535,8.62353671 53.2026367,8.31298828 C52.97412,8.00243985 52.6606465,7.84716797 52.262207,7.84716797 C51.7700171,7.84716797 51.4008801,8.0654275 51.1547852,8.50195312 L51.1547852,10.7739258 C51.3979504,11.2075217 51.770017,11.4243164 52.2709961,11.4243164 C52.6606465,11.4243164 52.9704578,11.2697769 53.2004395,10.9606934 C53.4304211,10.6516098 53.5454102,10.1923859 53.5454102,9.58300781 Z M55.1757812,9.57861328 C55.1757812,9.11279064 55.2673331,8.69384952 55.4504395,8.32177734 C55.6335458,7.94970517 55.8884261,7.66259867 56.2150879,7.46044922 C56.5417497,7.25829977 56.9145487,7.15722656 57.3334961,7.15722656 C57.9809603,7.15722656 58.5046367,7.38134542 58.904541,7.82958984 C59.3044454,8.27783427 59.5043945,8.87401972 59.5043945,9.61816406 L59.5043945,9.67529297 C59.5043945,10.1381859 59.4157724,10.553465 59.2385254,10.9211426 C59.0612784,11.2888202 58.807863,11.5751943 58.4782715,11.7802734 C58.14868,11.9853526 57.7700217,12.0878906 57.3422852,12.0878906 C56.6977507,12.0878906 56.1755391,11.8637718 55.7756348,11.4155273 C55.3757304,10.9672829 55.1757812,10.3740271 55.1757812,9.63574219 L55.1757812,9.57861328 Z M55.9931641,9.67529297 C55.9931641,10.2026394 56.1154773,10.625975 56.3601074,10.9453125 C56.6047376,11.26465 56.9321269,11.4243164 57.3422852,11.4243164 C57.7553732,11.4243164 58.0834949,11.2624528 58.3266602,10.9387207 C58.5698254,10.6149886 58.6914062,10.161624 58.6914062,9.57861328 C58.6914062,9.0571263 58.5676282,8.6345231 58.3200684,8.31079102 C58.0725085,7.98705893 57.7436544,7.82519531 57.3334961,7.82519531 C56.9321269,7.82519531 56.6083997,7.98486168 56.3623047,8.30419922 C56.1162097,8.62353675 55.9931641,9.08056343 55.9931641,9.67529297 Z M61.2929688,7.24511719 L61.3193359,7.84277344 C61.682619,7.3857399 62.1572236,7.15722656 62.7431641,7.15722656 C63.7480519,7.15722656 64.2548828,7.72411542 64.2636719,8.85791016 L64.2636719,12 L63.4506836,12 L63.4506836,8.85351562 C63.4477539,8.51074047 63.3693855,8.25732504 63.2155762,8.09326172 C63.0617668,7.9291984 62.8222673,7.84716797 62.4970703,7.84716797 C62.2333971,7.84716797 62.0019541,7.91747977 61.8027344,8.05810547 C61.6035146,8.19873117 61.4482427,8.38329964 61.3369141,8.61181641 L61.3369141,12 L60.5239258,12 L60.5239258,7.24511719 L61.2929688,7.24511719 Z M66.3730469,12 L65.5556641,12 L65.5556641,7.24511719 L66.3730469,7.24511719 L66.3730469,12 Z M66.3818359,5.25439453 L67.3662109,5.25439453 L66.1884766,6.54638672 L65.5336914,6.54638672 L66.3818359,5.25439453 Z M69.2822266,10.8969727 L70.4599609,7.24511719 L71.2905273,7.24511719 L69.5854492,12 L68.9658203,12 L67.2431641,7.24511719 L68.0737305,7.24511719 L69.2822266,10.8969727 Z M74.0458984,12.0878906 C73.401364,12.0878906 72.8769551,11.8762228 72.4726562,11.4528809 C72.0683574,11.0295389 71.8662109,10.4633825 71.8662109,9.75439453 L71.8662109,9.60498047 C71.8662109,9.13329842 71.9562979,8.71216006 72.1364746,8.34155273 C72.3166513,7.97094541 72.5686019,7.68090925 72.892334,7.47143555 C73.2160661,7.26196184 73.5668926,7.15722656 73.9448242,7.15722656 C74.5629914,7.15722656 75.0434553,7.36083781 75.3862305,7.76806641 C75.7290056,8.175295 75.9003906,8.75829699 75.9003906,9.51708984 L75.9003906,9.85546875 L72.6791992,9.85546875 C72.690918,10.3242211 72.8278795,10.7028794 73.0900879,10.9914551 C73.3522962,11.2800307 73.6855449,11.4243164 74.0898438,11.4243164 C74.3769546,11.4243164 74.6201162,11.3657232 74.8193359,11.2485352 C75.0185557,11.1313471 75.1928703,10.9760752 75.3422852,10.7827148 L75.8388672,11.1694336 C75.4404277,11.7817413 74.8427774,12.0878906 74.0458984,12.0878906 Z M73.9448242,7.82519531 C73.6166976,7.82519531 73.3413097,7.94457888 73.1186523,8.18334961 C72.895995,8.42212033 72.758301,8.75683378 72.7055664,9.1875 L75.0874023,9.1875 L75.0874023,9.12597656 C75.0639647,8.71288856 74.9526377,8.3928234 74.753418,8.16577148 C74.5541982,7.93871957 74.2846697,7.82519531 73.9448242,7.82519531 Z M77.7241211,12 L76.9111328,12 L76.9111328,5.25 L77.7241211,5.25 L77.7241211,12 Z M82.0219727,7.24511719 L82.0483398,7.84277344 C82.4116229,7.3857399 82.8862275,7.15722656 83.472168,7.15722656 C84.4770558,7.15722656 84.9838867,7.72411542 84.9926758,8.85791016 L84.9926758,12 L84.1796875,12 L84.1796875,8.85351562 C84.1767578,8.51074047 84.0983894,8.25732504 83.9445801,8.09326172 C83.7907707,7.9291984 83.5512712,7.84716797 83.2260742,7.84716797 C82.962401,7.84716797 82.730958,7.91747977 82.5317383,8.05810547 C82.3325185,8.19873117 82.1772467,8.38329964 82.065918,8.61181641 L82.065918,12 L81.2529297,12 L81.2529297,7.24511719 L82.0219727,7.24511719 Z M86.003418,9.57861328 C86.003418,9.11279064 86.0949698,8.69384952 86.2780762,8.32177734 C86.4611826,7.94970517 86.7160628,7.66259867 87.0427246,7.46044922 C87.3693864,7.25829977 87.7421854,7.15722656 88.1611328,7.15722656 C88.808597,7.15722656 89.3322734,7.38134542 89.7321777,7.82958984 C90.1320821,8.27783427 90.3320312,8.87401972 90.3320312,9.61816406 L90.3320312,9.67529297 C90.3320312,10.1381859 90.2434091,10.553465 90.0661621,10.9211426 C89.8889151,11.2888202 89.6354997,11.5751943 89.3059082,11.7802734 C88.9763167,11.9853526 88.5976584,12.0878906 88.1699219,12.0878906 C87.5253874,12.0878906 87.0031758,11.8637718 86.6032715,11.4155273 C86.2033671,10.9672829 86.003418,10.3740271 86.003418,9.63574219 L86.003418,9.57861328 Z M86.8208008,9.67529297 C86.8208008,10.2026394 86.943114,10.625975 87.1877441,10.9453125 C87.4323743,11.26465 87.7597636,11.4243164 88.1699219,11.4243164 C88.5830099,11.4243164 88.9111316,11.2624528 89.1542969,10.9387207 C89.3974622,10.6149886 89.519043,10.161624 89.519043,9.57861328 C89.519043,9.0571263 89.3952649,8.6345231 89.1477051,8.31079102 C88.9001452,7.98705893 88.5712911,7.82519531 88.1611328,7.82519531 C87.7597636,7.82519531 87.4360364,7.98486168 87.1899414,8.30419922 C86.9438464,8.62353675 86.8208008,9.08056343 86.8208008,9.67529297 Z" id="Disponívelno" fill="#FFFFFF" fill-rule="nonzero"></path>
            <g id="logo" transform="translate(8.120301, 7.500000)">
                <path d="M0.417744361,0.35811 C0.15518797,0.63441 -3.55271368e-15,1.06461 -3.55271368e-15,1.62261 L-3.55271368e-15,1.62261 L-3.55271368e-15,21.52611 C-3.55271368e-15,22.08411 0.15518797,22.51341 0.417744361,22.79061 L0.417744361,22.79061 L0.483609023,22.85541 L11.6625564,11.70621 L11.6625564,11.57481 L11.6625564,11.44251 L0.483609023,0.29241 L0.417744361,0.35811 Z" id="Fill" fill="url(#linearGradient-1)"></path>
                <path d="M11.6625564,11.44251 L11.6625564,11.57481 L11.6625564,11.70621 L15.3879699,15.42411 L15.4736842,15.37641 L19.8875188,12.87351 C21.1488722,12.15981 21.1488722,10.98981 19.8875188,10.27521 L19.8875188,10.27521 L15.4736842,7.77321 L15.3888722,7.72551 L11.6625564,11.44251 Z" id="Fill" fill="url(#linearGradient-2)"></path>
                <path d="M0.417744361,22.79061 C0.832781955,23.22981 1.5193985,23.28381 2.29263158,22.84641 L15.4736842,15.37641 L11.6625564,11.57481 L0.417744361,22.79061 Z" id="Fill" fill="url(#linearGradient-3)"></path>
                <path d="M0.417744361,0.35811 L11.6625564,11.57481 L15.4736842,7.77231 L2.29263158,0.30231 C1.92992481,0.09711 1.58616541,-9e-05 1.28120301,-9e-05 L1.28120301,-9e-05 C0.935639098,-9e-05 0.637894737,0.12501 0.417744361,0.35811" id="Fill" fill="url(#linearGradient-4)"></path>
            </g>
        </g>
    </g>
</svg>